<svg xmlns="http://www.w3.org/2000/svg" width="289" height="287.851" viewBox="0 0 289 287.851">
  <path id="Deep_Space" data-name="Deep Space" d="M8511.2-867.225c7.344-15.113,3.946-31.07,1.241-47.221-1.566-9.35,5.3-16.114,10.493-22.848,3.288-4.261,5.72-8.185,5.784-13.854.2-17.2,9.542-28.171,24.685-35.2a14.833,14.833,0,0,0,6.855-6.824c7.327-16.764,20.095-24.712,38.12-25.346a13.876,13.876,0,0,0,8.372-3.481c13.173-12.551,27.932-15.467,44.9-8.913,2.669,1.031,6.067.173,9.128.176a1.663,1.663,0,0,0,.577-.167c16.408-6.571,30.88-3.711,43.842,8.393,2.374,2.217,6.228,2.864,9.419,4.182a5,5,0,0,0,1.786.238c17.472.293,28.688,9.4,35.819,24.806,1.288,2.784,4.422,4.718,6.73,7.017a3.455,3.455,0,0,0,1.074.533c15.788,6.928,23.473,19.087,24.171,36.244a16.849,16.849,0,0,0,4.084,10.024c12.3,13.156,14.9,27.752,8.46,44.436-1.026,2.655-.158,6.052-.1,9.1a5.356,5.356,0,0,0,.492,1.732c6.218,16.11,2.858,30.1-8.766,42.687a16.863,16.863,0,0,0-4.154,9.991c-.642,17.445-8.639,29.47-24.507,36.759-3.11,1.429-5.285,4.929-7.822,7.542a7.382,7.382,0,0,0-1.132,2.116c-6.7,14.637-18.266,21.861-34.19,22.246a17.043,17.043,0,0,0-12.34,5c-12.371,12.128-26.742,14.028-42.764,8.132a15.927,15.927,0,0,0-10.216-.03c-16.532,6.159-30.935,3.519-43.911-8.584a16.657,16.657,0,0,0-9.994-4.176c-17.536-.51-29.4-8.734-36.751-24.5a16.9,16.9,0,0,0-7.609-7.669c-15.87-7.253-23.89-19.27-24.727-36.668-.175-3.591-2.418-7.262-4.31-10.551-2.993-5.2-6.752-9.972-9.673-15.212-1.488-2.671-1.856-5.967-3.061-10.12m192.757,48.085c-1.718,8.318-3.446,16.689-5.466,26.463,7.5,1.358,15.236,2.869,23.022,4.037,1.083.162,3.246-1.15,3.509-2.147,2.037-7.756,3.729-15.6,5.463-23.131l-26.528-5.222m50.089-29.071-26.47,5.469,5.149,26.553c7.6-1.7,15.182-3.209,22.627-5.23,1.232-.335,2.8-3.023,2.615-4.4-1.026-7.48-2.556-14.891-3.922-22.388M8698.49-988.223c2.064,10.111,3.765,18.441,5.408,26.494l26.592-5.141c-1.717-7.589-3.317-15.294-5.338-22.888-.293-1.1-2.716-2.516-3.95-2.343-7.621,1.066-15.183,2.545-22.712,3.878M8557.2-929.756c-6.271,4.381-12.443,8.441-18.256,12.961-1.192.927-2.031,4.139-1.349,5.341,3.8,6.694,8.124,13.092,12.166,19.432l22.351-15.108c-4.75-7.207-9.46-14.355-14.912-22.626m196.869-2.905c1.359-7.669,2.853-15.441,3.984-23.265.149-1.042-1.336-3.135-2.405-3.408-7.622-1.946-15.331-3.546-22.929-5.238-1.922,9.915-3.542,18.27-5.143,26.53l26.492,5.381m8.658,43.824-22.325,15.157c4.733,7.157,9.446,14.283,14.9,22.532,6.2-4.335,12.61-8.606,18.707-13.288,1.046-.8,1.607-3.85.933-5.013-3.871-6.672-8.185-13.087-12.218-19.388M8639.54-806.256l-22.548,14.84c4.423,6.293,8.882,12.823,13.612,19.148.644.86,3.081,1.418,3.964.894,6.909-4.1,13.644-8.492,20.087-12.577-5.6-8.264-10.3-15.2-15.115-22.306M8558.473-848.2c-1.3,7.551-2.749,15.325-3.85,23.148-.154,1.1,1.2,3.264,2.222,3.529,7.642,1.978,15.376,3.6,22.988,5.315,1.905-9.9,3.521-18.3,5.115-26.579l-26.476-5.412m55.569-140.029c-7.685-1.336-15.464-2.776-23.283-3.937-.994-.148-2.975.969-3.2,1.836-2.023,7.822-3.756,15.719-5.546,23.472l26.587,5.1c1.7-8.257,3.419-16.642,5.44-26.47M8673-974.576l22.558-14.885c-4.443-6.332-8.765-12.729-13.417-18.875-.727-.958-3.428-1.569-4.425-.986-6.795,3.971-13.38,8.305-19.837,12.4L8673-974.576m-88.066,36.534c-1.641-8.54-3.215-16.742-5.1-26.563-7.765,1.766-15.633,3.489-23.447,5.436a3.437,3.437,0,0,0-1.789,2.661,62.493,62.493,0,0,0,4.673,23.663l25.665-5.2m-2.941,124.122c1.77,7.675,3.436,15.41,5.453,23.052a4.287,4.287,0,0,0,3.519,2.222c7.787-1.161,15.521-2.676,23.075-4.042l-5.451-26.426-26.6,5.195m-32.247-74.889c-4.091,6.435-8.354,12.885-12.259,19.545-.622,1.062-.221,3.816.686,4.506,6.245,4.764,12.747,9.189,19.056,13.643l14.891-22.568-22.373-15.126m67.234-100.606,22.6,14.831,15.091-22.37c-6.391-4.084-12.617-8.35-19.18-12.016-1.315-.734-4.763.15-5.763,1.431-4.512,5.782-8.5,11.974-12.748,18.124m145.775,97.386c4.029-6.288,8.353-12.719,12.239-19.4.665-1.144.078-4.164-.967-4.966-6.113-4.688-12.536-8.974-18.741-13.317l-14.88,22.56,22.349,15.127m-67.192,100.613-22.585-14.825L8657.843-783.9c6.476,4.123,12.918,8.385,19.566,12.293,1.059.622,3.808.226,4.491-.674,4.776-6.284,9.214-12.826,13.658-19.138m-12.969,23.1c8.173,1.375,15.962,2.747,23.779,3.921a3.948,3.948,0,0,0,3.156-1.206c4.826-6.4,9.482-12.923,14.514-19.856l-26.548-5.479-14.9,22.62m17.156-78.64c1.133,7.42,2.224,14.911,3.476,22.376a4.008,4.008,0,0,0,1.766,2.777c7.837,3.012,15.855,5.109,25.654,4.3-1.839-8.206-3.356-15.629-5.283-22.943-.336-1.278-2.273-2.761-3.683-3.025-7.271-1.362-14.609-2.357-21.93-3.48M8599.5-913.916c-3.877-6.367-7.729-12.888-11.831-19.249-.7-1.079-2.571-2.231-3.708-2.06-7.771,1.173-15.487,2.69-25.228,4.46,5.7,8.149,10.051,14.544,14.659,20.745a4.715,4.715,0,0,0,3.95,1.35c7.4-1.576,14.736-3.454,22.157-5.246m-46.126,94.473c2.027,8.318,3.854,15.99,5.816,23.628a3.4,3.4,0,0,0,1.833,2.194c7.893,2.078,15.829,3.991,24.2,6.059-1.933-10.2-3.521-18.588-5.051-26.664l-26.8-5.217m199.2-109.489q-.606-1.183-1.209-2.366c-7.452-1.344-14.888-2.8-22.372-3.923a4.841,4.841,0,0,0-3.951,1.7c-4.17,6.493-8.054,13.17-11.912,19.587,7.284,1.779,14.616,3.646,22,5.29,1.112.248,3.012-.135,3.6-.93,4.742-6.357,9.257-12.883,13.841-19.358M8582-818.1l1.752,1.894c7.7-1.723,15.413-3.36,23.062-5.272a4.282,4.282,0,0,0,2.373-2.936c1.357-7.582,2.476-15.208,3.624-22.513-7.41,1.114-14.911,2.162-22.372,3.448a4.317,4.317,0,0,0-3,2.306c-1.971,7.65-3.662,15.372-5.437,23.073m145.266,30.564c8.363-2.049,16.178-3.917,23.953-5.939a3.369,3.369,0,0,0,2.011-2.049c2.012-7.782,3.871-15.6,5.9-23.908l-26.7,5.182c-1.6,8.289-3.219,16.661-5.16,26.714m5.17-179.037,26.666,5.139c-1.927-8.138-3.644-15.641-5.533-23.1a4.406,4.406,0,0,0-2.108-2.724,64.189,64.189,0,0,0-24-5c1.77,9.128,3.362,17.341,4.979,25.68m-1.99,4.035q-.948-1.02-1.892-2.041c-7.549,1.672-15.111,3.286-22.63,5.087a3.792,3.792,0,0,0-2.516,2.2c-1.365,7.945-2.5,15.93-3.634,23.476,7.172-1.144,14.306-2.128,21.359-3.523,1.605-.317,3.854-1.8,4.228-3.181,1.973-7.262,3.441-14.662,5.084-22.015m47.96,45.811c1.384-8.152,2.759-15.591,3.816-23.075a5.272,5.272,0,0,0-1.524-4.2c-6.244-4.786-12.7-9.3-19.509-14.2-2.027,9.9-3.736,18.259-5.436,26.558l22.652,14.922m-17.317,93.552c4.692-2.905,9.069-5.318,13.1-8.211,2.888-2.073,7.242-4.549,7.584-7.267,1.079-8.581-.816-17.039-4.427-24.722L8755.761-849.2l5.327,26.025m-145.648,28.213,2.152.914c6.447-4.535,12.959-8.979,19.263-13.7.909-.681,1.354-2.828,1.082-4.1-1.591-7.379-3.46-14.7-5.171-21.769-6.394,3.862-13.059,7.792-19.588,11.939a4.224,4.224,0,0,0-1.668,3.368c1.159,7.8,2.586,15.57,3.93,23.348m-66.876-95.454-15.209-22.434c-4.295,6.835-8.289,13.017-12.056,19.337-.729,1.225-1.281,3.392-.692,4.432,3.964,7,8.258,13.817,12.718,21.139,5.747-8.477,10.54-15.544,15.239-22.474M8779.2-912.872l-15.237,22.434L8779.183-868c4.287-6.89,8.395-13.234,12.167-19.77a5.876,5.876,0,0,0,.145-4.946c-3.817-6.693-7.99-13.185-12.295-20.159m-27.842,63.359q.593-1.215,1.187-2.43c-4.565-6.439-9.063-12.929-13.779-19.255a4.2,4.2,0,0,0-3.555-1.071c-7.5,1.691-14.957,3.616-22.131,5.393,3.8,6.242,7.61,12.75,11.734,19.053a5.4,5.4,0,0,0,4.233,2.148c7.469-1.052,14.88-2.515,22.311-3.839m-138.509-84.324c-1.179-7.455-2.331-15.114-3.663-22.743a3.732,3.732,0,0,0-1.949-2.611c-7.817-1.925-15.69-3.629-23.548-5.4l-1.629,1.994c1.707,7.535,3.3,15.1,5.244,22.572.291,1.12,2.111,2.379,3.4,2.615,7.423,1.361,14.9,2.434,22.145,3.571m-27.611-59.5c-8.248,2.018-15.92,3.854-23.557,5.822a3.637,3.637,0,0,0-2.176,1.836c-3.179,7.73-5.149,15.7-4.916,24l25.571-4.908c1.6-8.456,3.191-16.813,5.077-26.746m29.784,3.425,14.987-22.727c-8.441-1.307-16.426-2.571-24.426-3.733a2.951,2.951,0,0,0-2.18.763,65.507,65.507,0,0,0-13.922,20.43l25.54,5.266m18.783-23.37,22.455,15.1,22.5-15.127c-7.2-4.41-14.067-8.69-21.041-12.781a4,4,0,0,0-3.4.164c-6.794,4.054-13.486,8.278-20.52,12.639m-45.389,227.807c4.921,6.832,9.242,13.01,13.8,19a5.317,5.317,0,0,0,3.994,2.018c7.791-1.063,15.534-2.484,23.72-3.858l-14.9-22.6-26.62,5.44m44.368-161.706c1.73-7.21,3.539-14.36,5.094-21.565.281-1.3.024-3.5-.837-4.151-6.406-4.8-13.026-9.311-19.579-13.912l-2.063,1.159c-1.325,7.417-2.825,14.811-3.827,22.271-.2,1.452,1.139,3.778,2.461,4.653,6.128,4.057,12.5,7.745,18.752,11.545M8551.313-958.2c-6.754,4.872-13.178,9.431-19.482,14.15a4,4,0,0,0-1.412,3.085c1.067,7.947,2.348,15.866,3.637,24.276l22.718-14.94c-1.711-8.328-3.43-16.69-5.46-26.571m-.666,67.779c8.345,5.333,14.822,9.6,21.473,13.587a4.814,4.814,0,0,0,4.257-.246c6.37-4.38,12.56-9.022,18.466-13.326-5.866-4.264-11.952-8.8-18.2-13.119-1.059-.731-3.182-1.169-4.138-.6-6.816,4.041-13.454,8.377-21.862,13.7m128.087,122.9-22.464-15.193-22.433,15.191c6.807,4.266,13.146,8.4,19.683,12.2a5.95,5.95,0,0,0,5.017.168c6.715-3.838,13.222-8.042,20.2-12.364m1.072-179.68c6.337-3.869,12.666-7.657,18.892-11.608,1.024-.65,2.266-2.013,2.27-3.05.027-8.414-1.724-16.46-5.448-25.374-6.909,4.81-13.048,8.882-18.907,13.323a6.01,6.01,0,0,0-2.023,4.869c1.486,7.379,3.453,14.661,5.218,21.841m-23.542-4.673c4.353-5.974,8.879-12.02,13.166-18.231.729-1.057,1.089-3.216.5-4.2-4.021-6.746-8.341-13.314-12.564-19.94l-2.351.144c-4.137,6.512-8.392,12.954-12.29,19.606-.64,1.091-.225,3.45.577,4.627,4.151,6.088,8.587,11.983,12.96,17.995m-56.787,84.955c-7.235-1.745-14.379-3.527-21.562-5.14-1.182-.266-3.177-.269-3.7.43-4.937,6.561-9.638,13.3-14.406,19.989l1.277,2.086c7.426,1.338,14.832,2.812,22.3,3.886a5.358,5.358,0,0,0,4.269-2.04c4.137-6.312,7.948-12.836,11.828-19.211m95.364,72.842,2.263-.855c1.325-7.756,2.736-15.5,3.881-23.281a4.26,4.26,0,0,0-1.616-3.426c-6.5-4.144-13.14-8.063-19.529-11.93-1.815,7.29-3.755,14.736-5.439,22.238a4.235,4.235,0,0,0,1.222,3.565c6.315,4.686,12.793,9.153,19.22,13.69m29.217-201.28c-4.945-6.858-9.5-13.285-14.223-19.593a3.953,3.953,0,0,0-3.074-1.392c-7.949,1.117-15.868,2.445-24.208,3.775,5.638,8.527,10.339,15.64,14.958,22.627l26.547-5.417m35.833,106.225.1-2.541c-6.538-4.149-13.022-8.391-19.674-12.35a4.75,4.75,0,0,0-4.2.266c-6.372,4.419-12.57,9.09-18.418,13.379,5.72,4.137,11.628,8.6,17.77,12.705,1.339.9,3.979,1.353,5.221.634,6.54-3.787,12.824-8.017,19.2-12.093M8557.12-848.968l-23.046-15.115c-1.339,8.16-2.6,15.412-3.658,22.693a5.256,5.256,0,0,0,.844,3.922,61.121,61.121,0,0,0,20.644,13.919c.758-5.107,1.192-9.308,2.046-13.421.851-4.094,2.123-8.1,3.171-12m99.159,64.145c5.313-8.34,9.551-14.789,13.508-21.4a4.794,4.794,0,0,0-.148-4.24c-4.36-6.335-8.987-12.485-13.355-18.463-4.476,6.093-9.127,12.29-13.569,18.635a4.137,4.137,0,0,0-.146,3.687c4.078,6.756,8.377,13.379,13.712,21.787m6.8-70.439c-1.183,5.306-2.045,10.2-3.384,14.96-2.561,9.1,3.711,23.141,13.569,28.214,1.241-7.366,2.583-14.4,3.508-21.483a8.528,8.528,0,0,0-1.46-5.487c-3.773-5.365-7.88-10.5-12.233-16.2m60.729-78.672q-.768-.949-1.538-1.9c-6,1.164-12.039,2.174-17.986,3.567-2.456.575-5.675,1.32-6.9,3.112-4.037,5.927-7.322,12.367-10.918,18.646,6.813-.929,13.322-1.778,19.813-2.738,1.121-.165,2.591-.479,3.188-1.264,4.875-6.4,9.58-12.933,14.337-19.425m10.723,60.527.5-2.834c-6.559-4.047-13.088-8.144-19.712-12.084a5,5,0,0,0-3.442-.383c-6.736,1.7-13.432,3.573-20.028,5.356,5.456,4.208,10.936,8.5,16.511,12.666a4.929,4.929,0,0,0,3.274.994c7.646-1.136,15.269-2.453,22.9-3.714m-143.914-62.742-1.432,2.006c3.068,4.833,5.963,9.791,9.281,14.447,1.7,2.383,3.855,5.5,6.32,6.071,6.985,1.631,14.235,2.124,21.33,3.059-3.416-5.907-6.636-11.649-10.062-17.263a6.777,6.777,0,0,0-3.444-2.98c-7.287-1.946-14.654-3.591-21.993-5.341m122.306,171.4c19.513.043,33.017-9.252,37.2-25.229-7.172,1.128-14.467,2.182-21.715,3.5a6.111,6.111,0,0,0-3.654,2.423c-3.979,6.2-7.725,12.549-11.83,19.3m-76.7-155.7c-.937-6.825-1.819-13.565-2.829-20.285a5.132,5.132,0,0,0-1.4-3.144c-6.321-4.759-12.765-9.355-19.17-14l-2.3,1.523c1.848,7.673,3.61,15.369,5.635,23,.3,1.119,1.715,2.127,2.843,2.808,5.647,3.407,11.371,6.689,17.226,10.106m5.743-48.912-1.93.447c-1.144,4.354-2.6,8.655-3.34,13.076-.687,4.089-2.2,9.146-.539,12.29,3.415,6.461,8.712,11.928,13.1,17.629,1.7-6.523,3.438-12.862,4.965-19.25a6.727,6.727,0,0,0-.22-4.474c-3.865-6.659-8-13.162-12.037-19.718m-15.9,99.182c-6.841.836-13.892,1.673-20.932,2.6a3.323,3.323,0,0,0-2.051,1.124c-4.808,6.451-9.539,12.959-14.292,19.451q.817,1.163,1.635,2.326c7.672-1.853,15.36-3.644,23-5.635a5.131,5.131,0,0,0,2.513-2.382c3.451-5.809,6.789-11.686,10.13-17.481m59.8-.07c4.783,7.117,7.9,15.464,13.921,19.661,5.9,4.117,14.748,4.013,22.3,5.761q.71-1.257,1.417-2.515c-4.524-6.221-9-12.477-13.625-18.625a4.96,4.96,0,0,0-3.011-1.675c-6.694-.929-13.409-1.687-21-2.608m70.812,74.169c18.4-7.637,27.188-21.167,24.676-37.353-6.174,3.751-12.52,7.5-18.722,11.469a6.1,6.1,0,0,0-2.5,3.616c-1.284,7.262-2.29,14.573-3.452,22.267m.006-188.678c1.189,7.906,2.283,15.4,3.486,22.868a3.835,3.835,0,0,0,1.387,2.44c6.692,4.153,13.459,8.183,20.234,12.266-1.151-22.385-5.021-27.756-25.107-37.575M8621.27-883.816c-8.371-1.57-16.667-5.232-24.077-3.914-7.146,1.271-13.378,7.683-20.01,11.836q.375,1.222.748,2.444c7.439,1.26,14.869,2.593,22.33,3.711a5.794,5.794,0,0,0,3.913-.933c5.581-4.123,11.021-8.44,17.1-13.145m27.951,28.878c-4.244,5.535-8.4,10.885-12.451,16.317a5.066,5.066,0,0,0-1.186,3.227c1.115,7.814,2.43,15.6,3.683,23.393l2.714.506c4.141-6.731,8.359-13.417,12.338-20.242.579-.994.268-2.713-.053-3.992-1.593-6.381-3.327-12.727-5.045-19.209m11.471,102.179c16.819,7.8,33.171,4.461,43.907-8.884-7.27-1.781-14.58-3.648-21.941-5.295a5.244,5.244,0,0,0-3.71.859c-6.034,4.262-11.951,8.691-18.256,13.32m38.729-70.359,2.545-1.728c-1.808-7.477-3.558-14.969-5.487-22.416a4.994,4.994,0,0,0-2.185-2.652c-5.938-3.537-11.96-6.937-17.852-10.323.862,6.8,1.679,13.682,2.663,20.542a4.968,4.968,0,0,0,1.683,3c6.15,4.606,12.408,9.07,18.633,13.579m-180.764-71.759c4.516-6.186,8.889-12.113,13.171-18.105.637-.892,1.37-2.216,1.161-3.134-1.748-7.619-3.706-15.19-5.646-22.954-14.987,17.032-16.279,23.337-8.686,44.193m37.147-89.7c-17.37,6.308-26.646,20.257-24.781,37.2,6.58-3.946,13.224-7.885,19.795-11.94a3.769,3.769,0,0,0,1.461-2.365c1.244-7.634,2.37-15.287,3.525-22.9m194.765-6.195c-7.538-18.465-21.682-27.654-37.362-24.767,3.778,6.2,7.538,12.55,11.528,18.751a6.079,6.079,0,0,0,3.644,2.37c7.245,1.335,14.537,2.416,22.19,3.646M8607.924-761.621c10.806,13.34,27.115,16.659,43.863,8.871-6.2-4.587-12.4-9.223-18.674-13.765a3.73,3.73,0,0,0-2.686-.63c-7.54,1.772-15.049,3.674-22.5,5.523m83.918-135.866c6.595,1.786,13.113,3.6,19.666,5.279a5.071,5.071,0,0,0,3.451-.136c6.783-4.014,13.463-8.2,20.175-12.339q-.259-1.331-.518-2.663c-7.736-1.3-15.463-2.666-23.221-3.83a5.011,5.011,0,0,0-3.223,1.18c-5.418,4.053-10.755,8.217-16.331,12.508m-18.5-71.217-2.721-.574c-4.062,6.5-8.169,12.977-12.139,19.534a4.914,4.914,0,0,0-.6,3.377c1.729,6.883,3.642,13.72,5.469,20.468,4.123-5.415,8.263-10.78,12.295-16.224a5.121,5.121,0,0,0,1.2-3.228c-1.059-7.8-2.315-15.572-3.51-23.354M8784.762-939c-1.2,5.98-1.626,11.7-3.586,16.831-2.062,5.394-1.3,9,2.619,13.207s6.678,9.481,10.186,14.644c7.408-19.706,4.554-33.236-9.219-44.682m9.042,53.224c-4.577,6.186-9.21,12.348-13.688,18.62a4.507,4.507,0,0,0-.387,3.257c1.7,7.3,3.533,14.573,5.316,21.814,13.431-11,16.844-27.928,8.759-43.691M8704.6-1019.224c-10.861-13.354-30.919-17.2-43.5-8.536,5.844,4.275,11.761,8.686,17.792,12.934a5.325,5.325,0,0,0,3.739.925c7.379-1.651,14.706-3.534,21.973-5.322M8561.967-790.029c9.951,20.623,15.712,24.093,37.521,25.071-3.954-6.543-7.88-13.2-12.021-19.719a5.4,5.4,0,0,0-3.4-1.844c-7.224-1.247-14.477-2.318-22.1-3.508m-34.481-52.209c1.8-7.221,3.671-14.53,5.377-21.878a4.532,4.532,0,0,0-.644-3.267c-4.451-6.245-9.041-12.392-13.586-18.57-7.794,16.927-4.306,33.806,8.853,43.715m28.383,46.109c-1.213-7.743-2.29-15.045-3.559-22.313a5.33,5.33,0,0,0-1.955-3.322c-6.374-4.022-12.877-7.838-19.282-11.688-2.013,16.745,6.882,30.219,24.8,37.323m43.7-219.856c-18.77-.577-33,9.122-37.137,25.052,7.369-1.137,14.842-2.213,22.273-3.52a5.288,5.288,0,0,0,3.081-2.268c3.935-6.224,7.7-12.553,11.782-19.264m10.958,191.249,2.554,1.657c6.239-4.523,12.515-9,18.677-13.626a5.013,5.013,0,0,0,1.6-3.047c1.029-6.884,1.905-13.792,2.811-20.539-5.911,3.4-11.976,6.819-17.953,10.383a4.993,4.993,0,0,0-2.155,2.686c-1.941,7.47-3.711,14.986-5.533,22.487m-33.267-82.485c10.939,14.568,29.693,18.109,43,9.342-4.99-3.8-10.031-7.767-15.237-11.51-1.35-.972-3.306-1.921-4.819-1.71-7.483,1.043-14.913,2.479-22.947,3.878m30.307-112.059c7.712,1.892,15.062,3.726,22.434,5.462a3.891,3.891,0,0,0,2.809-.249c6.386-4.613,12.682-9.351,19-14.053-20.906-7.436-27.319-6.173-44.245,8.841m68.825,98.766c5.833-3.391,11.526-6.666,17.173-10.02.984-.585,2.309-1.362,2.559-2.3,2.08-7.769,3.946-15.6,5.876-23.4l-2.437-1.568c-6.375,4.633-12.789,9.217-19.08,13.962a5.077,5.077,0,0,0-1.432,3.13c-.957,6.692-1.779,13.4-2.659,20.2m-19.8,14.636c5.03-17.028,4.815-28.069-.5-36.444-5.617,11.342-5.54,23.751.5,36.444m-38.14-22.231c5.905,13.006,13.532,22.549,26.826,26.484-7.009-14.731-12.716-20.5-26.826-26.484m37.881,53.752c-6.812,12.055-5.008,24.07-.094,37.539,5.138-13.516,6.554-25.546.094-37.539m14.577-22.049c13.539,1.216,24.381-4.506,34.846-14.645-14.286.79-26.112,3.889-34.846,14.645m-35.248,55.613c9.661-10.583,16.035-20.946,14.477-34.861-10.623,8.686-13.773,20.433-14.477,34.861m41.211-.173c-.732-14.378-3.692-26-14.513-34.451-1.225,13.518,4.556,23.957,14.513,34.451m-58.04-12.534c12.089-3.172,23.548-14.851,25.744-25.562-12.725,3.934-20.278,13.437-25.744,25.562m-10.7-17.123c11.75,1.607,25.047-3.952,33.288-13.915-15.159.441-24.932,4.525-33.288,13.915m33.518-25.729c-8.728-10.891-20.645-13.982-34.887-14.715,10.309,10.011,21.1,15.793,34.887,14.715m25.833,17.14c4.078,13.16,13.484,20.806,26.585,26.539-5.86-13.044-13.492-22.484-26.585-26.539M8705.862-870c-10.626-9.456-20.967-15.773-34.858-14.307,8.854,10.519,20.368,14.043,34.858,14.307m3.406-20.242c-13.286-6.066-26.683-5.854-36.85-.052,11.82,6.305,23.976,5.074,36.85.052m-46.9-14.92c10.353-8.784,14.178-20.112,14.22-34.442-9.767,10.385-15.572,20.91-14.22,34.442m-26.1-33.333c.311,13.054,3.159,24.967,13.922,33.228,1.5-13.592-4.778-24.034-13.922-33.228m-33.289,47.974c14.593,6.066,25.747,5.892,37.132-.047-11.961-6.318-24.032-4.93-37.132.047m64.558-11.2c13.385-5.193,23.4-15.39,25.346-26.046-11.924,5.509-21.44,13.021-25.346,26.046" transform="translate(-8511.198 1034.34)" fill="#a3b276" opacity="0.2"/>
</svg>
